# xmcd
#
# Track frame offsets: 
#        150
#        14830
#        26797
#        43447
#
# Disc length: 879 seconds
#
# Revision: 2
# Processed by: cddbd v1.5.2PL0 Copyright (c) Steve Scherf et al.
# Submitted via: ExactAudioCopyFreeDBPlugin 1.0
#
DISCID=37036d04
DTITLE=LITTLE - いいの
DYEAR=1998
DGENRE=Hip-Hop
TTITLE0=いいの
TTITLE1=ジゴロメン
TTITLE2=レスキュー (featuring DOHZI-T)
TTITLE3=ハンティング・ワールド (featuring CASSETE　VISION)
EXTD=Powerd by gracenote music web API
EXTT0=
EXTT1=
EXTT2=
EXTT3=
PLAYORDER=
